<svg width="29" height="28" viewBox="0 0 29 28" fill="none" xmlns="http://www.w3.org/2000/svg">
<rect width="29" height="28" rx="5" fill="white" fill-opacity="0.1"/>
<path d="M21.375 9H8.875C8.70924 9 8.55027 8.93415 8.43306 8.81694C8.31585 8.69973 8.25 8.54076 8.25 8.375C8.25 8.20924 8.31585 8.05027 8.43306 7.93306C8.55027 7.81585 8.70924 7.75 8.875 7.75H19.5C19.6658 7.75 19.8247 7.68415 19.9419 7.56694C20.0592 7.44973 20.125 7.29076 20.125 7.125C20.125 6.95924 20.0592 6.80027 19.9419 6.68306C19.8247 6.56585 19.6658 6.5 19.5 6.5H8.875C8.37772 6.5 7.90081 6.69754 7.54917 7.04917C7.19754 7.40081 7 7.87772 7 8.375V18.375C7 18.8723 7.19754 19.3492 7.54917 19.7008C7.90081 20.0525 8.37772 20.25 8.875 20.25H21.375C21.7065 20.25 22.0245 20.1183 22.2589 19.8839C22.4933 19.6495 22.625 19.3315 22.625 19V10.25C22.625 9.91848 22.4933 9.60054 22.2589 9.36612C22.0245 9.1317 21.7065 9 21.375 9ZM21.375 19H8.875C8.70924 19 8.55027 18.9342 8.43306 18.8169C8.31585 18.6997 8.25 18.5408 8.25 18.375V10.143C8.45068 10.2141 8.66208 10.2503 8.875 10.25H21.375V19ZM17.625 14.3125C17.625 14.1271 17.68 13.9458 17.783 13.7917C17.886 13.6375 18.0324 13.5173 18.2037 13.4464C18.375 13.3754 18.5635 13.3568 18.7454 13.393C18.9273 13.4292 19.0943 13.5185 19.2254 13.6496C19.3565 13.7807 19.4458 13.9477 19.482 14.1296C19.5182 14.3115 19.4996 14.5 19.4286 14.6713C19.3577 14.8426 19.2375 14.989 19.0833 15.092C18.9292 15.195 18.7479 15.25 18.5625 15.25C18.3139 15.25 18.0754 15.1512 17.8996 14.9754C17.7238 14.7996 17.625 14.5611 17.625 14.3125Z" fill="#939FA3"/>
</svg>
