<svg width="30" height="30" viewBox="0 0 30 30" fill="none" xmlns="http://www.w3.org/2000/svg">
<path d="M15 0.375C12.1075 0.375 9.27986 1.23274 6.87479 2.83976C4.46972 4.44677 2.5952 6.73089 1.48827 9.40325C0.381337 12.0756 0.091713 15.0162 0.656022 17.8532C1.22033 20.6902 2.61323 23.2961 4.65857 25.3414C6.70391 27.3868 9.30984 28.7797 12.1468 29.344C14.9838 29.9083 17.9244 29.6187 20.5968 28.5117C23.2691 27.4048 25.5532 25.5303 27.1602 23.1252C28.7673 20.7201 29.625 17.8926 29.625 15C29.6209 11.1225 28.0788 7.40492 25.3369 4.66309C22.5951 1.92125 18.8775 0.379095 15 0.375ZM15 27.375C12.5525 27.375 10.1599 26.6492 8.12482 25.2894C6.08977 23.9297 4.50363 21.9969 3.567 19.7357C2.63036 17.4745 2.3853 14.9863 2.86279 12.5858C3.34028 10.1852 4.51889 7.98023 6.24956 6.24955C7.98024 4.51888 10.1852 3.34027 12.5858 2.86278C14.9863 2.38529 17.4745 2.63036 19.7357 3.56699C21.997 4.50363 23.9297 6.08976 25.2894 8.12482C26.6492 10.1599 27.375 12.5525 27.375 15C27.3713 18.2809 26.0663 21.4264 23.7463 23.7463C21.4264 26.0663 18.2809 27.3713 15 27.375ZM17.25 21.75C17.25 22.0484 17.1315 22.3345 16.9205 22.5455C16.7095 22.7565 16.4234 22.875 16.125 22.875C15.5283 22.875 14.956 22.6379 14.534 22.216C14.1121 21.794 13.875 21.2217 13.875 20.625V15C13.5766 15 13.2905 14.8815 13.0795 14.6705C12.8685 14.4595 12.75 14.1734 12.75 13.875C12.75 13.5766 12.8685 13.2905 13.0795 13.0795C13.2905 12.8685 13.5766 12.75 13.875 12.75C14.4717 12.75 15.044 12.9871 15.466 13.409C15.888 13.831 16.125 14.4033 16.125 15V20.625C16.4234 20.625 16.7095 20.7435 16.9205 20.9545C17.1315 21.1655 17.25 21.4516 17.25 21.75ZM12.75 8.8125C12.75 8.47874 12.849 8.15248 13.0344 7.87498C13.2198 7.59747 13.4834 7.38118 13.7917 7.25345C14.1001 7.12573 14.4394 7.09231 14.7667 7.15742C15.0941 7.22254 15.3947 7.38326 15.6307 7.61926C15.8667 7.85526 16.0275 8.15594 16.0926 8.48328C16.1577 8.81063 16.1243 9.14993 15.9966 9.45828C15.8688 9.76663 15.6525 10.0302 15.375 10.2156C15.0975 10.401 14.7713 10.5 14.4375 10.5C13.99 10.5 13.5607 10.3222 13.2443 10.0057C12.9278 9.68928 12.75 9.26005 12.75 8.8125Z" fill="white"/>
</svg>
