<svg width="30" height="28" viewBox="0 0 30 28" fill="none" xmlns="http://www.w3.org/2000/svg">
<rect x="0.666626" width="29" height="28" rx="5" fill="white" fill-opacity="0.1"/>
<path d="M15.1666 5.875C13.5597 5.875 11.9888 6.35152 10.6526 7.24431C9.31647 8.1371 8.27507 9.40605 7.66011 10.8907C7.04515 12.3753 6.88424 14.009 7.19775 15.5851C7.51125 17.1612 8.28509 18.6089 9.42139 19.7452C10.5577 20.8815 12.0054 21.6554 13.5815 21.9689C15.1576 22.2824 16.7913 22.1215 18.2759 21.5065C19.7606 20.8916 21.0295 19.8502 21.9223 18.514C22.8151 17.1779 23.2916 15.607 23.2916 14C23.2894 11.8458 22.4326 9.78051 20.9094 8.25727C19.3861 6.73403 17.3208 5.87727 15.1666 5.875ZM15.1666 20.875C13.8069 20.875 12.4777 20.4718 11.3471 19.7164C10.2165 18.9609 9.33531 17.8872 8.81496 16.6309C8.29461 15.3747 8.15846 13.9924 8.42373 12.6588C8.689 11.3251 9.34378 10.1001 10.3053 9.13864C11.2668 8.17716 12.4918 7.52237 13.8254 7.2571C15.159 6.99183 16.5413 7.12798 17.7976 7.64833C19.0538 8.16868 20.1275 9.04987 20.883 10.1805C21.6384 11.311 22.0416 12.6403 22.0416 14C22.0396 15.8227 21.3146 17.5702 20.0257 18.8591C18.7368 20.1479 16.9894 20.8729 15.1666 20.875ZM12.6666 14C12.6666 14.5247 12.8317 15.0361 13.1385 15.4618C13.4453 15.8874 13.8783 16.2058 14.3761 16.3717C14.8738 16.5376 15.4112 16.5427 15.912 16.3863C16.4129 16.2298 16.8518 15.9198 17.1666 15.5C17.2662 15.3674 17.4143 15.2798 17.5785 15.2564C17.7427 15.233 17.9094 15.2758 18.042 15.3754C18.1746 15.4749 18.2623 15.6231 18.2856 15.7873C18.309 15.9514 18.2662 16.1182 18.1666 16.2508C17.6943 16.8802 17.0359 17.3451 16.2846 17.5796C15.5334 17.8141 14.7275 17.8064 13.9809 17.5574C13.2343 17.3084 12.585 16.8309 12.1249 16.1925C11.6648 15.554 11.4172 14.787 11.4172 14C11.4172 13.213 11.6648 12.446 12.1249 11.8075C12.585 11.1691 13.2343 10.6916 13.9809 10.4426C14.7275 10.1936 15.5334 10.1859 16.2846 10.4204C17.0359 10.6549 17.6943 11.1198 18.1666 11.7492C18.2159 11.8149 18.2518 11.8896 18.2722 11.9691C18.2926 12.0487 18.2972 12.1314 18.2856 12.2127C18.2741 12.294 18.2466 12.3722 18.2048 12.4429C18.163 12.5136 18.1077 12.5753 18.042 12.6246C17.9764 12.6739 17.9016 12.7098 17.8221 12.7302C17.7426 12.7506 17.6598 12.7552 17.5785 12.7436C17.4972 12.732 17.419 12.7046 17.3483 12.6628C17.2777 12.621 17.2159 12.5657 17.1666 12.5C16.8518 12.0802 16.4129 11.7702 15.912 11.6137C15.4112 11.4573 14.8738 11.4624 14.3761 11.6283C13.8783 11.7942 13.4453 12.1126 13.1385 12.5382C12.8317 12.9639 12.6666 13.4753 12.6666 14Z" fill="#939FA3"/>
</svg>
