<svg width="29" height="28" viewBox="0 0 29 28" fill="none" xmlns="http://www.w3.org/2000/svg">
<rect width="29" height="28" rx="5" fill="white" fill-opacity="0.1"/>
<path d="M14.5584 19.14C14.0077 19.14 13.4944 19.0607 13.0184 18.902C12.5424 18.7433 12.1317 18.5147 11.7864 18.216C11.4411 17.908 11.1797 17.5487 11.0024 17.138C10.9371 16.9887 10.9324 16.8533 10.9884 16.732C11.0537 16.6013 11.1657 16.5173 11.3244 16.48C11.4457 16.4427 11.5624 16.4567 11.6744 16.522C11.7957 16.578 11.8844 16.6713 11.9404 16.802C12.1271 17.2033 12.4537 17.5253 12.9204 17.768C13.3871 18.0107 13.9331 18.132 14.5584 18.132C15.0344 18.132 15.4544 18.0573 15.8184 17.908C16.1824 17.7493 16.4671 17.5253 16.6724 17.236C16.8871 16.9373 16.9944 16.5733 16.9944 16.144C17.0037 15.5653 16.8077 15.0707 16.4064 14.66C16.0144 14.24 15.3984 13.974 14.5584 13.862C13.9051 13.778 13.3357 13.6007 12.8504 13.33C12.3651 13.0593 11.9917 12.714 11.7304 12.294C11.4691 11.874 11.3384 11.3933 11.3384 10.852C11.3384 10.2827 11.4831 9.79733 11.7724 9.396C12.0711 8.99467 12.4724 8.68667 12.9764 8.472C13.4897 8.25733 14.0637 8.15 14.6984 8.15C15.2024 8.15 15.6504 8.22933 16.0424 8.388C16.4437 8.53733 16.7891 8.74267 17.0784 9.004C17.3677 9.26533 17.6011 9.55467 17.7784 9.872C17.8624 10.0213 17.8904 10.166 17.8624 10.306C17.8437 10.4367 17.7691 10.5347 17.6384 10.6C17.5264 10.6747 17.4004 10.6887 17.2604 10.642C17.1297 10.5953 17.0271 10.5113 16.9524 10.39C16.7657 10.0633 16.4951 9.774 16.1404 9.522C15.7857 9.27 15.3051 9.144 14.6984 9.144C13.9984 9.13467 13.4384 9.27467 13.0184 9.564C12.5984 9.85333 12.3884 10.292 12.3884 10.88C12.3884 11.188 12.4537 11.482 12.5844 11.762C12.7244 12.042 12.9671 12.2893 13.3124 12.504C13.6577 12.7187 14.1431 12.8727 14.7684 12.966C15.8417 13.1247 16.6584 13.4747 17.2184 14.016C17.7877 14.548 18.0724 15.248 18.0724 16.116C18.0724 16.6013 17.9791 17.0307 17.7924 17.404C17.6151 17.7773 17.3677 18.0947 17.0504 18.356C16.7331 18.6173 16.3597 18.8133 15.9304 18.944C15.5011 19.0747 15.0437 19.14 14.5584 19.14ZM14.6564 20.386C14.5537 20.386 14.4651 20.3487 14.3904 20.274C14.3251 20.2087 14.2924 20.1153 14.2924 19.994V7.492C14.2924 7.36133 14.3251 7.26333 14.3904 7.198C14.4651 7.13267 14.5537 7.1 14.6564 7.1C14.7497 7.1 14.8291 7.13267 14.8944 7.198C14.9691 7.26333 15.0064 7.36133 15.0064 7.492V19.994C15.0064 20.1153 14.9691 20.2087 14.8944 20.274C14.8291 20.3487 14.7497 20.386 14.6564 20.386Z" fill="#939FA3"/>
</svg>
