<svg width="30" height="28" viewBox="0 0 30 28" fill="none" xmlns="http://www.w3.org/2000/svg">
<rect x="0.333374" width="29" height="28" rx="5" fill="white" fill-opacity="0.1"/>
<path d="M22.3334 7.75H7.33337C7.16761 7.75 7.00864 7.81585 6.89143 7.93306C6.77422 8.05027 6.70837 8.20924 6.70837 8.375V19C6.70837 19.3315 6.84007 19.6495 7.07449 19.8839C7.30891 20.1183 7.62685 20.25 7.95837 20.25H21.7084C22.0399 20.25 22.3578 20.1183 22.5923 19.8839C22.8267 19.6495 22.9584 19.3315 22.9584 19V8.375C22.9584 8.20924 22.8925 8.05027 22.7753 7.93306C22.6581 7.81585 22.4991 7.75 22.3334 7.75ZM20.7263 9L14.8334 14.4023L8.94041 9H20.7263ZM21.7084 19H7.95837V9.79609L14.4107 15.7109C14.526 15.8168 14.6769 15.8755 14.8334 15.8755C14.9899 15.8755 15.1407 15.8168 15.256 15.7109L21.7084 9.79609V19Z" fill="#939FA3"/>
</svg>
