<svg width="1400" height="317" viewBox="0 0 1400 317" fill="none" xmlns="http://www.w3.org/2000/svg">
<g style="mix-blend-mode:overlay">
<path d="M645.097 89.1025H561.136C559.199 89.1025 557.389 88.3603 556.031 86.9845L545.151 76.1046C543.286 74.24 540.625 73.715 538.199 74.7288C535.774 75.7426 534.253 77.9873 534.253 80.6303C534.253 84.613 531.013 87.8534 527.03 87.8534H496.074C494.137 87.8534 492.327 87.0931 490.969 85.7354L407.931 2.69734C406.736 1.50254 405.107 0.832739 403.423 0.832739H288.814C285.302 0.832739 282.423 3.693 282.423 7.22306V18.2477C282.423 22.2304 279.183 25.4708 275.2 25.4708H22.9364V24.6381H275.218C278.73 24.6381 281.609 21.7778 281.609 18.2477V7.22306C281.609 3.24042 284.849 0 288.832 0H403.441C405.378 0 407.189 0.742223 408.546 2.11804L491.584 85.1561C492.779 86.3509 494.408 87.0207 496.092 87.0207H527.048C530.56 87.0207 533.438 84.1604 533.438 80.6303C533.438 77.6615 535.14 75.0908 537.892 73.9504C540.643 72.8099 543.648 73.4073 545.766 75.5072L556.646 86.3871C557.841 87.5819 559.47 88.2517 561.154 88.2517H645.115V89.0844L645.097 89.1025Z" fill="#23272A" fill-opacity="0.95"/>
<path d="M307.677 112.745H115.153C111.17 112.745 107.93 109.504 107.93 105.522V54.218C107.93 50.7061 105.069 47.8277 101.539 47.8277H22.9364V46.9949H101.539C105.522 46.9949 108.762 50.2354 108.762 54.218V105.522C108.762 109.034 111.623 111.912 115.153 111.912H307.677C311.189 111.912 314.067 109.052 314.067 105.522V86.6765C314.067 82.6939 317.308 79.4535 321.29 79.4535H500.183C503.695 79.4535 506.574 76.5932 506.574 73.0631V30.648C506.574 28.711 507.316 26.9007 508.692 25.543L526.813 7.422C528.17 6.06428 529.981 5.30396 531.918 5.30396H645.115V6.13669H531.918C530.216 6.13669 528.605 6.8065 527.41 8.00129L509.289 26.1223C508.076 27.3352 507.424 28.9283 507.424 30.6299V73.045C507.424 77.0277 504.184 80.2681 500.201 80.2681H321.309C317.797 80.2681 314.918 83.1284 314.918 86.6584V105.504C314.918 109.486 311.678 112.727 307.695 112.727L307.677 112.745Z" fill="#23272A" fill-opacity="0.95"/>
<path d="M440.371 238.289H263.959C262.022 238.289 260.211 237.546 258.853 236.17L185.953 163.27C184.74 162.057 183.147 161.405 181.445 161.405H126.268C124.566 161.405 122.955 162.075 121.76 163.27L95.4928 189.537C94.1351 190.895 92.3248 191.655 90.3878 191.655H22.9364V190.823H90.3516C92.0533 190.823 93.6645 190.153 94.8592 188.958L121.127 162.691C122.484 161.333 124.313 160.573 126.232 160.573H181.409C183.346 160.573 185.157 161.315 186.514 162.691L259.415 235.591C260.628 236.804 262.221 237.456 263.922 237.456H440.335C442.037 237.456 443.648 236.786 444.843 235.591L505.306 175.127C506.664 173.77 508.493 173.009 510.411 173.009H645.061V173.842H510.411C508.71 173.842 507.099 174.512 505.904 175.707L445.44 236.17C444.082 237.528 442.272 238.289 440.335 238.289H440.371Z" fill="#23272A" fill-opacity="0.95"/>
<path d="M116.728 253.205H0V252.372H116.728C120.239 252.372 123.118 249.512 123.118 245.982V148.226C123.118 144.244 126.358 141.003 130.341 141.003H288.977C290.914 141.003 292.724 141.746 294.082 143.121L364.122 213.162C365.335 214.375 366.928 215.026 368.629 215.026H645.115V215.859H368.629C366.692 215.859 364.882 215.117 363.524 213.741L293.484 143.701C292.271 142.488 290.678 141.836 288.977 141.836H130.341C126.829 141.836 123.951 144.696 123.951 148.226V245.982C123.951 249.965 120.71 253.205 116.728 253.205Z" fill="#23272A" fill-opacity="0.95"/>
<path d="M148.19 317H22.9364V316.167H148.19C149.892 316.167 151.503 315.498 152.698 314.303L194.136 272.865C195.493 271.507 197.322 270.747 199.241 270.747H283.654C285.591 270.747 287.402 271.489 288.759 272.865L317.29 301.395C318.503 302.608 320.096 303.26 321.797 303.26H428.586C430.288 303.26 431.899 302.59 433.094 301.395L476.921 257.568C478.279 256.211 480.107 255.45 482.026 255.45H645.061V256.283H482.026C480.324 256.283 478.713 256.953 477.518 258.148L433.691 301.975C432.334 303.332 430.523 304.093 428.586 304.093H321.797C319.86 304.093 318.05 303.35 316.692 301.975L288.162 273.444C286.949 272.232 285.356 271.58 283.654 271.58H199.241C197.539 271.58 195.928 272.25 194.733 273.444L153.295 314.882C151.938 316.24 150.127 317 148.19 317Z" fill="#23272A" fill-opacity="0.95"/>
</g>
<g style="mix-blend-mode:overlay">
<path d="M645.021 89.1025H743.284C745.551 89.1025 747.67 88.3603 749.259 86.9845L761.992 76.1046C764.174 74.24 767.288 73.715 770.127 74.7288C772.966 75.7426 774.746 77.9873 774.746 80.6303C774.746 84.613 778.538 87.8534 783.199 87.8534H819.428C821.695 87.8534 823.814 87.0931 825.403 85.7354L922.585 2.69734C923.983 1.50254 925.89 0.832739 927.86 0.832739H1061.99C1066.1 0.832739 1069.47 3.693 1069.47 7.22306V18.2477C1069.47 22.2304 1073.26 25.4708 1077.92 25.4708H1373.16V24.6381H1077.9C1073.79 24.6381 1070.42 21.7778 1070.42 18.2477V7.22306C1070.42 3.24042 1066.63 0 1061.97 0H927.839C925.572 0 923.453 0.742223 921.864 2.11804L824.682 85.1561C823.284 86.3509 821.377 87.0207 819.407 87.0207H783.178C779.068 87.0207 775.699 84.1604 775.699 80.6303C775.699 77.6615 773.708 75.0908 770.487 73.9504C767.267 72.8099 763.75 73.4073 761.271 75.5072L748.538 86.3871C747.14 87.5819 745.233 88.2517 743.263 88.2517H645V89.0844L645.021 89.1025Z" fill="#23272A" fill-opacity="0.95"/>
<path d="M1039.92 112.745H1265.23C1269.89 112.745 1273.69 109.504 1273.69 105.522V54.218C1273.69 50.7061 1277.03 47.8277 1281.17 47.8277H1373.16V46.9949H1281.17C1276.5 46.9949 1272.71 50.2354 1272.71 54.218V105.522C1272.71 109.034 1269.36 111.912 1265.23 111.912H1039.92C1035.81 111.912 1032.44 109.052 1032.44 105.522V86.6765C1032.44 82.6939 1028.64 79.4535 1023.98 79.4535H814.619C810.509 79.4535 807.14 76.5932 807.14 73.0631V30.648C807.14 28.711 806.271 26.9007 804.661 25.543L783.453 7.422C781.864 6.06428 779.746 5.30396 777.479 5.30396H645V6.13669H777.479C779.47 6.13669 781.356 6.8065 782.754 8.00129L803.962 26.1223C805.381 27.3352 806.144 28.9283 806.144 30.6299V73.045C806.144 77.0277 809.936 80.2681 814.597 80.2681H1023.96C1028.07 80.2681 1031.44 83.1284 1031.44 86.6584V105.504C1031.44 109.486 1035.23 112.727 1039.89 112.727L1039.92 112.745Z" fill="#23272A" fill-opacity="0.95"/>
<path d="M884.619 238.289H1091.08C1093.35 238.289 1095.47 237.546 1097.06 236.17L1182.37 163.27C1183.79 162.057 1185.66 161.405 1187.65 161.405H1252.22C1254.22 161.405 1256.1 162.075 1257.5 163.27L1288.24 189.537C1289.83 190.895 1291.95 191.655 1294.22 191.655H1373.16V190.823H1294.26C1292.27 190.823 1290.38 190.153 1288.98 188.958L1258.24 162.691C1256.65 161.333 1254.51 160.573 1252.27 160.573H1187.69C1185.42 160.573 1183.31 161.315 1181.72 162.691L1096.4 235.591C1094.98 236.804 1093.11 237.456 1091.12 237.456H884.661C882.67 237.456 880.784 236.786 879.386 235.591L808.623 175.127C807.034 173.77 804.894 173.009 802.648 173.009H645.064V173.842H802.648C804.64 173.842 806.525 174.512 807.924 175.707L878.686 236.17C880.275 237.528 882.394 238.289 884.661 238.289H884.619Z" fill="#23272A" fill-opacity="0.95"/>
<path d="M1263.39 253.205H1400V252.372H1263.39C1259.28 252.372 1255.91 249.512 1255.91 245.982V148.226C1255.91 144.244 1252.12 141.003 1247.46 141.003H1061.8C1059.53 141.003 1057.42 141.746 1055.83 143.121L973.856 213.162C972.437 214.375 970.572 215.026 968.581 215.026H645V215.859H968.581C970.848 215.859 972.966 215.117 974.555 213.741L1056.53 143.701C1057.94 142.488 1059.81 141.836 1061.8 141.836H1247.46C1251.57 141.836 1254.94 144.696 1254.94 148.226V245.982C1254.94 249.965 1258.73 253.205 1263.39 253.205Z" fill="#23272A" fill-opacity="0.95"/>
<path d="M1226.57 317H1373.16V316.167H1226.57C1224.58 316.167 1222.69 315.498 1221.29 314.303L1172.8 272.865C1171.21 271.507 1169.07 270.747 1166.82 270.747H1068.03C1065.76 270.747 1063.64 271.489 1062.06 272.865L1028.67 301.395C1027.25 302.608 1025.38 303.26 1023.39 303.26H898.411C896.42 303.26 894.534 302.59 893.136 301.395L841.843 257.568C840.254 256.211 838.114 255.45 835.869 255.45H645.064V256.283H835.869C837.86 256.283 839.746 256.953 841.144 258.148L892.436 301.975C894.025 303.332 896.144 304.093 898.411 304.093H1023.39C1025.66 304.093 1027.78 303.35 1029.36 301.975L1062.75 273.444C1064.17 272.232 1066.04 271.58 1068.03 271.58H1166.82C1168.81 271.58 1170.7 272.25 1172.1 273.444L1220.59 314.882C1222.18 316.24 1224.3 317 1226.57 317Z" fill="#23272A" fill-opacity="0.95"/>
</g>
</svg>
